HIERARCHY
ROOT Joint1
{
	OFFSET 0.000000 0.000000 0.000000
	CHANNELS 6 Xposition Yposition Zposition Xrotation Yrotation Zrotation
	JOINT Joint2
	{
		OFFSET -0.000000 0.000000 1.456275
		CHANNELS 6 Xposition Yposition Zposition Xrotation Yrotation Zrotation
		JOINT Joint3
		{
			OFFSET -0.000000 0.000002 1.471446
			CHANNELS 6 Xposition Yposition Zposition Xrotation Yrotation Zrotation
			JOINT Joint4
			{
				OFFSET 0.625745 0.000000 0.917755
				CHANNELS 6 Xposition Yposition Zposition Xrotation Yrotation Zrotation
				JOINT Joint5
				{
					OFFSET -0.629534 0.000001 0.940221
					CHANNELS 6 Xposition Yposition Zposition Xrotation Yrotation Zrotation
					JOINT Joint6
					{
						OFFSET -0.000001 0.113772 1.960660
						CHANNELS 6 Xposition Yposition Zposition Xrotation Yrotation Zrotation
						JOINT Joint7
						{
							OFFSET -0.669733 -0.113771 0.388340
							CHANNELS 6 Xposition Yposition Zposition Xrotation Yrotation Zrotation
							End Site
							{
								OFFSET 0.005509 0.005509 0.438980
							}
						}
					}
				}
			}
		}
	}
}
MOTION
Frames: 22
Frame Time: 0.041667
0.000000 0.000000 0.000000 -0.000000 1.019410 -73.364114 -0.000000 0.000000 1.456275 -0.000000 -18.167414 0.000001 -0.000000 0.000002 1.471445 -0.000000 -1.133455 10.277402 0.625745 0.000000 0.917755 -0.000023 81.646975 0.000015 -0.629533 0.000001 0.940221 0.000000 1.709737 34.612066 -0.000001 0.113772 1.960661 -88.303896 83.360792 -0.000028 -0.669733 -0.113771 0.388339 -1.035824 3.511307 153.921646 
0.000000 0.000000 0.000000 -0.000000 1.019410 -74.996898 -0.000000 0.000000 1.456275 0.000000 -17.570544 -0.000000 -0.000000 0.000002 1.471445 -0.000000 -1.133459 10.506784 0.625745 0.000000 0.917755 -0.000023 80.459000 -0.000005 -0.629534 0.000001 0.940221 -0.000004 1.709737 35.382726 -0.000001 0.113772 1.960660 -88.303882 83.213670 -0.000009 -0.669733 -0.113771 0.388340 -1.042902 3.508856 154.343479 
0.000000 0.000000 0.000000 -0.000000 1.019410 -76.416204 -0.000000 0.000000 1.456275 -0.000000 -17.051711 -0.000000 -0.000000 0.000002 1.471446 -0.000000 -1.133458 10.706177 0.625745 0.000000 0.917755 -0.000009 79.426344 0.000008 -0.629533 0.000001 0.940221 -0.000001 1.709734 36.052621 -0.000001 0.113772 1.960660 -88.303909 83.085795 -0.000027 -0.669733 -0.113771 0.388340 -1.049044 3.506691 154.710123 
0.000000 0.000000 0.000000 -0.000000 1.019410 -77.837853 -0.000000 0.000000 1.456275 -0.000000 -16.532014 -0.000001 -0.000000 0.000002 1.471446 -0.000000 -1.133458 10.905897 0.625745 0.000000 0.917755 -0.000026 78.391973 -0.000001 -0.629533 0.000001 0.940221 -0.000001 1.709740 36.723629 -0.000001 0.113772 1.960660 -88.303909 82.957715 -0.000012 -0.669733 -0.113771 0.388340 -1.055172 3.504465 155.077423 
0.000000 0.000000 0.000000 -0.000000 1.019410 -79.477707 -0.000000 -0.000000 1.456275 0.000000 -15.932557 -0.000001 -0.000000 0.000002 1.471446 -0.000000 -1.133458 11.136272 0.625745 0.000000 0.917755 -0.000003 77.198855 0.000002 -0.629533 0.000001 0.940220 0.000000 1.709736 37.497629 -0.000001 0.113772 1.960660 -88.303896 82.809965 -0.000019 -0.669733 -0.113771 0.388340 -1.062232 3.501865 155.501045 
0.000000 0.000000 0.000000 -0.000000 1.019410 -81.467389 -0.000000 -0.000000 1.456275 -0.000000 -15.205224 0.000000 -0.000000 0.000002 1.471446 0.000000 -1.133457 11.415792 0.625745 0.000000 0.917755 0.000005 75.751203 0.000006 -0.629533 0.000001 0.940221 -0.000000 1.709735 38.436732 -0.000001 0.113772 1.960661 -88.303889 82.630693 -0.000018 -0.669733 -0.113771 0.388340 -1.070771 3.498638 156.015072 
0.000000 0.000000 0.000000 -0.000000 1.019410 -83.601720 -0.000000 -0.000000 1.456275 0.000000 -14.425008 0.000000 -0.000000 0.000002 1.471445 -0.000000 -1.133460 11.715632 0.625744 0.000000 0.917755 -0.000001 74.198312 0.000003 -0.629533 0.000001 0.940221 -0.000001 1.709738 39.444124 -0.000001 0.113772 1.960660 -88.303916 82.438396 -0.000018 -0.669733 -0.113772 0.388340 -1.079896 3.495084 156.566432 
0.000000 0.000000 0.000000 -0.000000 1.019410 -85.591307 -0.000000 0.000000 1.456275 0.000000 -13.697701 -0.000000 -0.000000 0.000002 1.471446 -0.000000 -1.133458 11.995140 0.625745 0.000000 0.917755 -0.000005 72.750735 0.000003 -0.629534 0.000001 0.940221 -0.000001 1.709740 40.383193 -0.000001 0.113772 1.960661 -88.303909 82.259137 0.000001 -0.669733 -0.113771 0.388340 -1.088372 3.491699 157.080404 
0.000000 0.000000 0.000000 -0.000000 1.019410 -87.230982 -0.000000 -0.000000 1.456275 0.000000 -13.098310 0.000000 -0.000000 0.000002 1.471446 -0.000000 -1.133459 12.225491 0.625745 0.000000 0.917755 0.000001 71.557747 -0.000000 -0.629534 0.000001 0.940220 0.000001 1.709734 41.157111 -0.000000 0.113772 1.960661 -88.303909 82.111394 -0.000011 -0.669733 -0.113771 0.388341 -1.095332 3.488845 157.503998 
0.000000 0.000000 0.000000 -0.000000 1.019410 -88.652502 -0.000000 0.000000 1.456275 -0.000000 -12.578668 -0.000000 -0.000000 0.000002 1.471446 -0.000000 -1.133460 12.425192 0.625745 0.000000 0.917755 -0.000007 70.523493 0.000004 -0.629534 0.000001 0.940221 -0.000002 1.709736 41.828048 -0.000001 0.113772 1.960661 -88.303909 81.983328 -0.000011 -0.669733 -0.113771 0.388341 -1.101354 3.486336 157.871217 
0.000000 0.000000 0.000000 -0.000000 1.019410 -90.071822 -0.000000 -0.000000 1.456275 0.000000 -12.059829 0.000000 -0.000000 0.000002 1.471446 -0.000000 -1.133458 12.624580 0.625745 0.000000 0.917755 -0.000004 69.490823 0.000003 -0.629534 0.000001 0.940220 -0.000002 1.709736 42.497946 -0.000001 0.113772 1.960660 -88.303909 81.855446 0.000007 -0.669733 -0.113771 0.388339 -1.107345 3.483792 158.237889 
0.000000 0.000000 0.000000 -0.000000 1.019410 -91.704907 -0.000000 -0.000000 1.456275 -0.000000 -11.462846 -0.000000 -0.000000 0.000002 1.471446 -0.000000 -1.133458 12.854007 0.625744 0.000000 0.917755 -0.000003 68.302623 0.000001 -0.629534 0.000001 0.940220 0.000000 1.709738 43.268757 -0.000001 0.113772 1.960660 -88.303916 81.708310 -0.000025 -0.669733 -0.113771 0.388339 -1.114219 3.480816 158.659748 
0.000000 0.000000 0.000000 -0.000000 1.019410 -93.685224 -0.000000 -0.000000 1.456275 0.000000 -10.738934 -0.000000 -0.000000 0.000002 1.471446 -0.000000 -1.133458 13.132210 0.625745 0.000000 0.917755 -0.000004 66.861794 -0.000001 -0.629533 0.000001 0.940221 -0.000002 1.709738 44.203448 -0.000001 0.113772 1.960660 -88.303903 81.529892 -0.000002 -0.669733 -0.113771 0.388340 -1.122525 3.477137 159.171329 
0.000000 0.000000 0.000000 -0.000000 1.019410 -95.816134 -0.000000 0.000000 1.456275 -0.000000 -9.959968 -0.000000 -0.000000 0.000002 1.471446 -0.000000 -1.133458 13.431572 0.625744 0.000000 0.917755 -0.000004 65.311389 0.000004 -0.629534 0.000001 0.940221 -0.000001 1.709735 45.209224 -0.000001 0.113772 1.960661 -88.303909 81.337895 0.000013 -0.669732 -0.113771 0.388340 -1.131428 3.473098 159.721815 
0.000000 0.000000 0.000000 -0.000000 1.019410 -97.818506 -0.000000 -0.000000 1.456275 0.000000 -9.227989 -0.000000 -0.000000 0.000002 1.471446 -0.000000 -1.133458 13.712879 0.625744 0.000000 0.917755 -0.000003 63.854496 0.000002 -0.629534 0.000001 0.940221 0.000000 1.709735 46.154324 -0.000001 0.113772 1.960660 -88.303903 81.157489 -0.000004 -0.669733 -0.113771 0.388341 -1.139754 3.469225 160.239079 
0.000000 0.000000 0.000000 -0.000000 1.019410 -99.490892 -0.000000 -0.000000 1.456275 -0.000000 -8.616641 -0.000000 -0.000000 0.000002 1.471446 -0.000000 -1.133458 13.947823 0.625744 0.000000 0.917755 -0.000001 62.637705 0.000001 -0.629533 0.000001 0.940221 -0.000001 1.709741 46.943675 -0.000001 0.113773 1.960661 -88.303909 81.006809 -0.000006 -0.669733 -0.113771 0.388340 -1.146685 3.465933 160.671089 
0.000000 0.000000 0.000000 -0.000000 1.019410 -100.942608 -0.000000 0.000000 1.456275 -0.000000 -8.085957 -0.000001 -0.000000 0.000002 1.471446 -0.000000 -1.133458 14.151766 0.625745 0.000000 0.917755 -0.000002 61.581477 0.000001 -0.629533 0.000001 0.940220 -0.000001 1.709739 47.628866 -0.000000 0.113772 1.960660 -88.303909 80.876010 -0.000000 -0.669733 -0.113771 0.388339 -1.152678 3.463033 161.046107 
0.000000 0.000000 0.000000 -0.000000 1.019410 -102.360671 -0.000000 0.000000 1.456275 -0.000000 -7.567576 0.000001 -0.000000 0.000002 1.471446 -0.000000 -1.133458 14.350982 0.625744 0.000000 0.917755 -0.000002 60.549723 0.000002 -0.629534 0.000001 0.940220 -0.000000 1.709736 48.298187 -0.000000 0.113772 1.960660 -88.303909 80.748238 -0.000014 -0.669733 -0.113771 0.388340 -1.158514 3.460166 161.412424 
0.000000 0.000000 0.000000 -0.000000 1.019410 -103.932106 -0.000000 0.000000 1.456275 -0.000000 -6.993134 -0.000000 -0.000000 0.000002 1.471445 -0.000000 -1.133459 14.571744 0.625745 0.000000 0.917755 -0.000002 59.406383 0.000002 -0.629534 0.000001 0.940221 -0.000001 1.709737 49.039891 -0.000001 0.113772 1.960661 -88.303896 80.606655 -0.000011 -0.669733 -0.113771 0.388341 -1.164959 3.456942 161.818369 
0.000000 0.000000 0.000000 -0.000000 1.019410 -105.792397 -0.000000 -0.000000 1.456275 -0.000000 -6.313096 -0.000001 -0.000000 0.000002 1.471445 0.000000 -1.133459 14.833091 0.625745 0.000000 0.917755 -0.000001 58.052879 0.000002 -0.629533 0.000001 0.940221 -0.000000 1.709738 49.917925 -0.000001 0.113772 1.960661 -88.303889 80.439042 0.000004 -0.669733 -0.113771 0.388340 -1.172564 3.453064 162.298928 
0.000000 0.000000 0.000000 -0.000000 1.019410 -107.870960 -0.000000 -0.000000 1.456275 -0.000000 -5.553267 -0.000002 -0.000000 0.000002 1.471446 -0.000000 -1.133458 15.125092 0.625745 0.000000 0.917755 -0.000001 56.540559 0.000001 -0.629534 0.000001 0.940221 -0.000001 1.709737 50.898997 -0.000001 0.113773 1.960661 -88.303909 80.251772 -0.000001 -0.669733 -0.113772 0.388340 -1.181021 3.448658 162.835849 
0.000000 0.000000 0.000000 -0.000000 1.019410 -110.045706 -0.000000 0.000000 1.456275 -0.000000 -4.758277 -0.000000 -0.000000 0.000002 1.471446 -0.000000 -1.133459 15.430611 0.625745 0.000000 0.917755 -0.000002 54.958263 0.000002 -0.629534 0.000001 0.940221 -0.000001 1.709734 51.925454 -0.000001 0.113772 1.960661 -88.303896 80.055834 0.000006 -0.669733 -0.113771 0.388340 -1.189820 3.443966 163.397618 
